<?xml version="1.0" encoding="utf-8"?>
<!-- Generator: Adobe Illustrator 21.0.0, SVG Export Plug-In . SVG Version: 6.00 Build 0)  -->
<svg version="1.1" id="Layer_1" xmlns="http://www.w3.org/2000/svg" xmlns:xlink="http://www.w3.org/1999/xlink" x="0px" y="0px"
	 viewBox="0 0 500 255" style="enable-background:new 0 0 500 255;" xml:space="preserve">
<style type="text/css">
	.st0{fill:none;stroke:#1E1E1E;stroke-width:12;stroke-linecap:round;stroke-linejoin:round;stroke-miterlimit:10;}
	.st1{fill:none;stroke:#F8B400;stroke-width:12;stroke-linecap:round;stroke-linejoin:round;stroke-miterlimit:10;}
	.st2{fill:#1E1E1E;}
	.st3{fill:#F8B400;}
	.st4{fill:#1F1F1F;}
</style>
<g>
	<polyline class="st0" points="73.5,46.4 73.5,220.7 178.6,220.7 178.6,46.4 	"/>
	<circle class="st0" cx="106.5" cy="166.4" r="13.6"/>
	<circle class="st0" cx="145.4" cy="187.8" r="13.6"/>
	<circle class="st0" cx="147.2" cy="145.8" r="13.6"/>
	<circle class="st0" cx="106.5" cy="123" r="13.6"/>
	<circle class="st0" cx="146.2" cy="103.8" r="13.6"/>
	<line class="st1" x1="104.4" y1="85.9" x2="154.6" y2="8.8"/>
	<line class="st0" x1="73.5" y1="245.4" x2="178.6" y2="245.4"/>
</g>
<g>
	<path class="st2" d="M262.3,158.1l-4.1-30.1l-13.9,30.2H240L226.3,128l-4,30.1h-14.6l7.9-52.3H230l12.3,28.5l12.4-28.5H269
		l7.8,52.3H262.3z"/>
	<path class="st2" d="M325.7,117.7v40.4H315l-1.2-2.9c-3.3,2.7-7.5,4.2-12.2,4.2c-12.3,0-21.2-9-21.2-21.5s8.8-21.4,21.2-21.4
		c4.8,0,9,1.6,12.3,4.3l1.4-3.1L325.7,117.7z M312.5,138c0-5.2-3.8-9.2-9-9.2s-9,3.9-9,9.2s3.8,9.2,9,9.2S312.5,143.2,312.5,138z"/>
	<path class="st2" d="M374.4,133.5v24.6h-13.9v-22.7c0-4.7-1.8-7-5.3-7c-4.3,0-6.8,3-6.8,8.2v21.5h-13.9v-40.4h9.8l1.9,4.2
		c3-3.3,7.5-5.4,12.7-5.4C368.2,116.6,374.4,123.3,374.4,133.5z"/>
	<path class="st2" d="M412.1,158.1l-15-23.1v23.1h-14.4v-52.3h14.4v22l13.8-22h16.7l-16.8,25.3l18.3,27H412.1z"/>
</g>
<g>
	<path class="st3" d="M205.2,203.9v-32.1h14.7v31.8c0,5.1,3.3,8.4,8.1,8.4s8.1-3.3,8.1-8.4v-31.8h14.7v32.1
		c0,12.9-9.5,21.6-22.8,21.6C214.7,225.4,205.2,216.7,205.2,203.9z"/>
	<path class="st3" d="M251.7,227.2h3.4c3.3,0,5-1.9,5-5.3v-38.1H274V223c0,10.3-6.3,16.5-17.1,16.5h-5.2V227.2z M260.2,166.9h13.7
		v11.8h-13.7V166.9z"/>
	<path class="st3" d="M325.7,183.7V224H315l-1.2-2.9c-3.3,2.7-7.5,4.2-12.2,4.2c-12.3,0-21.2-9-21.2-21.5s8.8-21.4,21.2-21.4
		c4.8,0,9,1.6,12.3,4.3l1.4-3.1L325.7,183.7z M312.5,203.9c0-5.2-3.8-9.2-9-9.2s-9,3.9-9,9.2s3.8,9.2,9,9.2S312.5,209.2,312.5,203.9
		z"/>
	<path class="st3" d="M374.4,199.5v24.6h-13.9v-22.7c0-4.7-1.8-7-5.3-7c-4.3,0-6.8,3-6.8,8.2v21.5h-13.9v-40.3h9.8l1.9,4.2
		c3-3.3,7.5-5.4,12.7-5.4C368.2,182.6,374.4,189.2,374.4,199.5z"/>
	<path class="st3" d="M435.7,196.2c0,17.1-11.2,29.3-27.6,29.3c-16,0-27.9-11.5-27.9-27.4s11.6-27.5,27.7-27.5
		c13.7,0,24.9,8.6,27.1,20.7h-15.1c-1.9-4.4-6.6-7.2-11.9-7.2c-7.8,0-13.1,5.7-13.1,14S400.1,212,408,212c5.5,0,10.2-2.7,11.9-6.7
		h-13v-9.1H435.7z"/>
</g>
<g>
	<path class="st4" d="M239,51.4c0-0.6,0.5-1.1,1.1-1.1h0.1h7.1c4.4,0,8,3.6,8,8.1c0,2.5-1.2,4.8-3.1,6.3c3.6,1.2,6.3,4.7,6.3,8.7
		c0,5.1-4.2,9.2-9.2,9.2h-9.1h-0.1l0,0c-0.6,0-1.1-0.5-1.1-1.1L239,51.4L239,51.4z M247.3,64.1c3.2,0,5.8-2.6,5.8-5.7
		c0-3.2-2.6-5.8-5.8-5.8h-6v11.5H247.3z M249.3,80.3c3.8,0,6.9-3.1,7-7c0-3.8-3.1-7-7-7h-8.1v13.9L249.3,80.3L249.3,80.3L249.3,80.3
		z"/>
	<path class="st4" d="M294.3,49.8c8.6,0,15.4,7.3,15.5,16.4c0,9-6.8,16.4-15.5,16.4s-15.5-7.3-15.6-16.4
		C278.8,57.1,285.6,49.8,294.3,49.8z M294.3,80.3c7.1,0,13.1-6.2,13.1-14.1c0-8-6-14.1-13.1-14.1c-7.3,0-13.3,6.1-13.3,14.1
		C281,74.1,287,80.3,294.3,80.3z"/>
	<path class="st4" d="M333.2,51.4c0-0.6,0.5-1.1,1.1-1.1h0.1h7.1c4.4,0,8,3.6,8,8.1c0,2.5-1.2,4.8-3.1,6.3c3.6,1.2,6.3,4.7,6.3,8.7
		c0,5.1-4.2,9.2-9.2,9.2h-9.1h-0.1l0,0c-0.6,0-1.1-0.5-1.1-1.1L333.2,51.4L333.2,51.4z M341.5,64.1c3.2,0,5.8-2.6,5.8-5.7
		c0-3.2-2.6-5.8-5.8-5.8h-6v11.5H341.5z M343.6,80.3c3.8,0,6.9-3.1,7-7c0-3.8-3.1-7-7-7h-8.1v13.9L343.6,80.3L343.6,80.3z"/>
	<path class="st4" d="M392.1,74.2h-14.7l-2.9,7.6c-0.2,0.5-0.6,0.7-1.1,0.7c-0.1,0-0.3,0-0.4,0c-0.6-0.2-0.9-0.9-0.6-1.5l11.2-29.9
		c0.2-0.4,0.6-0.7,1.1-0.7s1,0.3,1.1,0.7L397,81c0.2,0.6,0,1.2-0.6,1.5c-0.2,0-0.3,0-0.4,0c-0.4,0-0.9-0.3-1.1-0.7L392.1,74.2z
		 M378.2,71.9h13.1l-6.5-17.3L378.2,71.9z"/>
</g>
</svg>
