<?xml version="1.0" encoding="utf-8"?>
<!-- Generator: Adobe Illustrator 21.0.0, SVG Export Plug-In . SVG Version: 6.00 Build 0)  -->
<svg version="1.1" xmlns="http://www.w3.org/2000/svg" xmlns:xlink="http://www.w3.org/1999/xlink" x="0px" y="0px"
	 viewBox="0 0 200 200" style="enable-background:new 0 0 200 200;" xml:space="preserve">
<style type="text/css">
	.st0{fill:#EAB16C;}
	.st1{fill:#FFDBB3;}
	.st2{fill:#1E1E1E;}
	.st3{fill:#5CA81A;}
	.st4{opacity:0.53;fill:#AF6617;}
	.st5{fill:#5E2D00;}
	.st6{fill:#FFDE55;}
	.st7{fill:#FCE68B;}
	.st8{fill:#DD9957;}
	.st9{fill:#FFF2BB;}
	.st10{opacity:0.49;fill:#FFE164;}
	.st11{opacity:0.45;fill:#FFD836;}
	.st12{fill:#FFC024;}
	.st13{opacity:0.61;fill:#FCD077;}
	.st14{opacity:0.53;fill:#FCB515;}
	.st15{fill:#FFC98F;}
	.st16{opacity:0.79;fill:#824F2B;}
	.st17{fill:#FFE1BD;}
	.st18{fill:#A0682A;}
	.st19{fill:#7C4D1E;}
	.st20{fill:#1E0F02;}
	.st21{fill:#FFF5EE;}
	.st22{fill:#8E4B14;}
	.st23{opacity:0.28;fill:#5BA02E;}
	.st24{opacity:0.83;fill:#168E2A;}
	.st25{opacity:0.58;fill:#824F2B;}
	.st26{opacity:0.25;fill:#824F2B;}
	.st27{fill:none;stroke:#1E1E1E;stroke-width:10;stroke-linecap:round;stroke-linejoin:round;stroke-miterlimit:10;}
</style>
<g id="Layer_2">
	<rect x="54.7" y="50.1" class="st1" width="82.9" height="126"/>
	<rect x="55.1" y="50.1" class="st1" width="82.5" height="27.7"/>
	<path class="st16" d="M55.1,125.8c0,0,3.7-12.1,9.8-6.1c6.1,6.1,1.7,22.4,7.9,19.9c5.8-2.3,2.3-20.7,6.1-21.6c0.4-0.1,1,0,2.1,0.9
		c7.6,6.6,3.5,24.1,6.5,24.8c2.2,0.5,6.2-8.7,6.5-9.4c3.5-8.1,3.1-13.5,4.7-13.7c3.2-0.3,7.3,18,9.7,17.5c0.3-0.1,0.5-0.4,0.6-0.8
		c2.5-5.8,1.1-11.8,3.8-16.7c0.9-1.6,2.7-3.9,3.7-3.6c2.2,0.7,2.2,13.5,4.7,17.6c0.1,0.1,0.2,0.3,0.4,0.4c2,0.2,5.2-18.6,7.7-16.1
		c2.7,2.7,2,35.4,2,35.4c-0.1,1.4-1.6,15.4-5,15.7c-0.6,0-1.5-0.3-1.5-0.3c-2.1-0.7-3.2-2.6-3.8-3.5c-3.6-6-4.1-9.5-5.8-9.8
		c-1.8-0.2-2.4,3.1-4.8,3.3c-3.1,0.2-4.4-5.2-6.7-5c-3.2,0.4-2.8,11.4-8,13c-0.5,0.2-1.2,0.4-1.9,0.1c-1.9-0.9-1.1-4.8-2.7-11
		c-0.5-1.8-1.2-4.6-1.9-4.6c-1.4,0.1-0.4,10.4-6.8,17.3c-1,1.1-2,2.2-3,1.9c-3.4-1,0.9-19.5-2.7-20.7c-1.4-0.5-3.4,1.9-6.5,5.5
		c-5.2,6.1-6.4,10.1-7.9,9.8c-1.6-0.3-2.1-5.6-2.5-10.4c-0.3-3.6-0.3-6.2-0.7-6.2c-1.2-0.2-3.6,7.9-4,9.1c0,0,0,0.1,0,0.1
		C54.8,158.8,54.9,141.9,55.1,125.8z"/>
	<path class="st16" d="M56.5,104.7c1.2-0.6,3.7-1.7,7-1.5c1.4,0.1,4.7,0.2,7.3,2.5c2.2,2,1.9,3.7,3.4,4c2.1,0.4,3.2-2.7,7-3
		c0.7-0.1,1.7-0.1,2.8,0.3c2.7,1.1,2.5,4,4.3,4.5c2,0.5,2.9-2.5,6.3-2.8c2.1-0.2,2.3,0.9,5,1c3.7,0.1,4.5-1.8,6.5-1.2
		c3.1,1,2.8,6.2,5.5,6.7c1.3,0.2,2.5-0.8,3.2-1.3c2.1-1.7,1.6-3.6,3.3-4.5c1-0.5,2.1-0.4,4.3,0c3.3,0.6,3.5,1.5,4.7,1.2
		c2.3-0.7,1.6-4.4,5-7c0.8-0.6,1.8-1.4,2.6-1.2c1.8,0.4,3.1,6.6,0.7,30.9c-0.1,1.4-1.6,15.4-5,15.7c-0.6,0-1.5-0.3-1.5-0.3
		c-2.1-0.7-3.2-2.6-3.8-3.5c-3.6-6-4.1-9.5-5.8-9.8c-1.8-0.2-2.4,3.1-4.8,3.3c-3.1,0.2-4.4-5.2-6.7-5c-3.2,0.4-2.8,11.4-8,13
		c-0.5,0.2-1.2,0.4-1.9,0.1c-1.9-0.9-1.1-4.8-2.7-11c-0.5-1.8-1.2-4.6-1.9-4.6c-1.4,0.1-0.4,10.4-6.8,17.3c-1,1.1-2,2.2-3,1.9
		c-3.4-1,0.9-19.5-2.7-20.7c-1.4-0.5-3.4,1.9-6.5,5.5c-5.2,6.1-6.4,10.1-7.9,9.8c-1.6-0.3-2.1-5.6-2.5-10.4
		c-0.3-3.6-0.3-6.2-0.7-6.2c-1.2-0.2-3.6,7.9-4,9.1c0,0,0,0.1,0,0.1C58.9,137.7,57.7,120.7,56.5,104.7z"/>
	<path class="st25" d="M56.5,85.6c1.2-0.6,3.7-1.7,7-1.5c1.4,0.1,4.7,0.2,7.3,2.5c2.2,2,1.9,3.7,3.4,4c2.1,0.4,3.2-2.7,7-3
		c0.7-0.1,1.7-0.1,2.8,0.3c2.7,1.1,2.5,4,4.3,4.5c2,0.5,2.9-2.5,6.3-2.8c2.1-0.2,2.3,0.9,5,1c3.7,0.1,4.5-1.8,6.5-1.2
		c3.1,1,2.8,6.2,5.5,6.7c1.3,0.2,2.5-0.8,3.2-1.3c2.1-1.7,1.6-3.6,3.3-4.5c1-0.5,2.1-0.4,4.3,0c3.3,0.6,3.5,1.5,4.7,1.2
		c2.3-0.7,1.6-4.4,5-7c0.8-0.6,1.8-1.4,2.6-1.2c1.8,0.4,3.1,6.6,0.7,30.9c-0.1,1.4-1.6,15.4-5,15.7c-0.6,0-1.5-0.3-1.5-0.3
		c-2.1-0.7-3.2-2.6-3.8-3.5c-3.6-6-4.1-9.5-5.8-9.8c-1.8-0.2-2.4,3.1-4.8,3.3c-3.1,0.2-4.4-5.2-6.7-5c-3.2,0.4-2.8,11.4-8,13
		c-0.5,0.2-1.2,0.4-1.9,0.1c-1.9-0.9-1.1-4.8-2.7-11c-0.5-1.8-1.2-4.6-1.9-4.6c-1.4,0.1-0.4,10.4-6.8,17.3c-1,1.1-2,2.2-3,1.9
		c-3.4-1,0.9-19.5-2.7-20.7c-1.4-0.5-3.4,1.9-6.5,5.5c-5.2,6.1-6.4,10.1-7.9,9.8c-1.6-0.3-2.1-5.6-2.5-10.4
		c-0.3-3.6-0.3-6.2-0.7-6.2c-1.2-0.2-3.6,7.9-4,9.1c0,0,0,0.1,0,0.1C58.9,118.6,57.7,101.7,56.5,85.6z"/>
	<path class="st26" d="M55.4,70.1c1.2-0.6,3.7-1.7,7-1.5c1.4,0.1,4.7,0.2,7.3,2.5c2.2,2,1.9,3.7,3.4,4c2.1,0.4,3.2-2.7,7-3
		c0.7-0.1,1.7-0.1,2.8,0.3c2.7,1.1,2.5,4,4.3,4.5c2,0.5,2.9-2.5,6.3-2.8c2.1-0.2,2.3,0.9,5,1c3.7,0.1,4.5-1.8,6.5-1.2
		c3.1,1,2.8,6.2,5.5,6.7c1.3,0.2,2.5-0.8,3.2-1.3c2.1-1.7,1.6-3.6,3.3-4.5c1-0.5,2.1-0.4,4.3,0c3.3,0.6,3.5,1.5,4.7,1.2
		c2.3-0.7,1.6-4.4,5-7c0.8-0.6,1.8-1.4,2.6-1.2c1.8,0.4,3.1,6.6,0.7,30.9c-0.1,1.4-1.6,15.4-5,15.7c-0.6,0-1.5-0.3-1.5-0.3
		c-2.1-0.7-3.2-2.6-3.8-3.5c-3.6-6-4.1-9.5-5.8-9.8c-1.8-0.2-2.4,3.1-4.8,3.3c-3.1,0.2-4.4-5.2-6.7-5c-3.2,0.4-2.8,11.4-8,13
		c-0.5,0.2-1.2,0.4-1.9,0.1c-1.9-0.9-1.1-4.8-2.7-11c-0.5-1.8-1.2-4.6-1.9-4.6c-1.4,0.1-0.4,10.4-6.8,17.3c-1,1.1-2,2.2-3,1.9
		c-3.4-1,0.9-19.5-2.7-20.7c-1.4-0.5-3.4,1.9-6.5,5.5c-5.2,6.1-6.4,10.1-7.9,9.8c-1.6-0.3-2.1-5.6-2.5-10.4
		c-0.3-3.6-0.3-6.2-0.7-6.2c-1.2-0.2-3.6,7.9-4,9.1c0,0,0,0.1,0,0.1C57.8,103.1,56.5,86.1,55.4,70.1z"/>
	<path class="st16" d="M134.5,174.4H93.3c-0.3-0.8-0.6-1.3-0.9-1.3c-0.3,0-0.5,0.5-0.7,1.3H81.3c-0.2-1.5-0.6-2.5-1.4-2.8
		c-1-0.3-2.3,0.8-4.1,2.8h-13c-0.2-2.4-0.2-4-0.5-4c-0.6-0.1-1.5,1.9-2.3,4h-1.9c0-6.3,0.1-17.3,0.2-27.9c0,0,3.4-11.2,9.1-6.7
		c0.2,0.2,0.5,0.4,0.7,0.6c1.2,1.2,2.1,2.9,2.6,4.7c0.7,2.4,1,5,1.2,7.5c0.5,5,0.7,9.1,4,7.8c1.8-0.7,2.7-3.1,3.3-6
		c0.7-3.9,0.6-8.7,1.1-12c0.2-1.1,0.4-2.1,0.7-2.7c0.3-0.5,0.6-0.8,1-0.9c0.4-0.1,1,0,2.1,0.9c2.6,2.3,3.9,5.9,4.5,9.6
		c0.8,5,0.5,10.4,1,13.2c0.2,1.1,0.5,1.9,1,2c0.8,0.2,1.8-0.9,2.8-2.4c1.8-2.6,3.5-6.6,3.7-7c0.1-0.3,0.3-0.6,0.4-0.9
		c3.1-7.6,2.8-12.6,4.3-12.7c0.1,0,0.2,0,0.3,0c1.3,0.3,2.7,3.4,4.1,6.9c0.5,1.3,1,2.6,1.5,3.9c1.4,3.7,2.7,6.9,3.7,6.7
		c0.3-0.1,0.5-0.4,0.6-0.8c0.4-0.9,0.7-1.8,0.9-2.6c0.8-3.2,0.9-6.3,1.4-9.3c0.3-1.6,0.7-3.1,1.4-4.5c0.1-0.1,0.1-0.2,0.2-0.3
		c0.7-1.3,2-3,3-3.5c0.3-0.1,0.5-0.2,0.7-0.1c0.6,0.2,1,1.3,1.4,2.8c0.6,2.5,1,6.2,1.6,9.5c0.4,2.2,0.9,4.2,1.7,5.4
		c0.1,0.1,0.2,0.4,0.4,0.4c0.8,0.1,1.9-3.2,3-6.8c1.5-5,3.2-10.7,4.7-9.3C135,142.1,134.6,169.7,134.5,174.4z"/>
	<path class="st16" d="M63.2,128.4c0,0,3.7-12.1,9.8-6.1c6.1,6.1,1.7,22.4,7.9,19.9c5.8-2.3,2.3-20.7,6.1-21.6c0.4-0.1,1,0,2.1,0.9
		c7.6,6.6,3.5,24.1,6.5,24.8c2.2,0.5,6.2-8.7,6.5-9.4c3.5-8.1,3.1-13.5,4.7-13.7c3.2-0.3,7.3,18,9.7,17.5c0.3-0.1,0.5-0.4,0.6-0.8
		c2.5-5.8,1.1-11.8,3.8-16.7c0.9-1.6,2.7-3.9,3.7-3.6c2.2,0.7,2.2,13.5,4.7,17.6c0.1,0.1,0.2,0.3,0.4,0.4c2,0.2,5.2-18.6,7.7-16.1
		c2.7,2.7,2,35.4,2,35.4c-0.1,1.4-1.6,15.4-5,15.7c-0.6,0-1.5-0.3-1.5-0.3c-2.1-0.7-3.2-2.6-3.8-3.5c-3.6-6-4.1-9.5-5.8-9.8
		c-1.8-0.2-2.4,3.1-4.8,3.3c-3.1,0.2-4.4-5.2-6.7-5c-3.2,0.4-2.8,11.4-8,13c-0.5,0.2-1.2,0.4-1.9,0.1c-1.9-0.9-1.1-4.8-2.7-11
		c-0.5-1.8-1.2-4.6-1.9-4.6c-1.4,0.1-0.4,10.4-6.8,17.3c-1,1.1-2,2.2-3,1.9c-3.4-1,0.9-19.5-2.7-20.7c-1.4-0.5-3.4,1.9-6.5,5.5
		c-5.2,6.1-6.4,10.1-7.9,9.8c-1.6-0.3-2.1-5.6-2.5-10.4c-0.3-3.6-0.3-6.2-0.7-6.2c-1.2-0.2-3.6,7.9-4,9.1c0,0,0,0.1,0,0.1
		C62.9,161.5,63,144.5,63.2,128.4z"/>
	<g>
		<circle class="st2" cx="71.3" cy="160.7" r="6.9"/>
		<circle class="st2" cx="104.2" cy="160.7" r="6.9"/>
		<circle class="st2" cx="71.3" cy="140.9" r="6.9"/>
		<circle class="st2" cx="87.9" cy="157.4" r="6.9"/>
		<circle class="st2" cx="88.7" cy="136.8" r="6.9"/>
		<circle class="st2" cx="122.3" cy="136.8" r="6.9"/>
		<circle class="st2" cx="106.1" cy="143.7" r="6.9"/>
		<circle class="st2" cx="123.6" cy="157.4" r="6.9"/>
	</g>
</g>
<g id="Layer_1">
	<polyline class="st27" points="54.9,38.6 54.9,176.1 137.8,176.1 137.8,38.6 	"/>
	<line class="st27" x1="54.9" y1="191" x2="137.8" y2="191"/>
</g>
</svg>
