<?xml version="1.0" encoding="utf-8"?>
<!-- Generator: Adobe Illustrator 21.0.0, SVG Export Plug-In . SVG Version: 6.00 Build 0)  -->
<svg version="1.1" xmlns="http://www.w3.org/2000/svg" xmlns:xlink="http://www.w3.org/1999/xlink" x="0px" y="0px"
	 viewBox="0 0 200 200" style="enable-background:new 0 0 200 200;" xml:space="preserve">
<style type="text/css">
	.st0{fill:#EAB16C;}
	.st1{fill:#FFDBB3;}
	.st2{fill:#1E1E1E;}
	.st3{fill:#5CA81A;}
	.st4{opacity:0.53;fill:#AF6617;}
	.st5{fill:#5E2D00;}
	.st6{fill:#FFDE55;}
	.st7{fill:#FCE68B;}
	.st8{fill:#DD9957;}
	.st9{fill:#FFF2BB;}
	.st10{opacity:0.49;fill:#FFE164;}
	.st11{opacity:0.45;fill:#FFD836;}
	.st12{fill:#FFC024;}
	.st13{opacity:0.61;fill:#FCD077;}
	.st14{opacity:0.53;fill:#FCB515;}
	.st15{fill:#FFC98F;}
	.st16{opacity:0.79;fill:#824F2B;}
	.st17{fill:#FFE1BD;}
	.st18{fill:#A0682A;}
	.st19{fill:#7C4D1E;}
	.st20{fill:#1E0F02;}
	.st21{fill:#FFF5EE;}
	.st22{fill:#8E4B14;}
	.st23{opacity:0.28;fill:#5BA02E;}
	.st24{opacity:0.83;fill:#168E2A;}
	.st25{opacity:0.58;fill:#824F2B;}
	.st26{opacity:0.25;fill:#824F2B;}
	.st27{fill:none;stroke:#1E1E1E;stroke-width:10;stroke-linecap:round;stroke-linejoin:round;stroke-miterlimit:10;}
</style>
<g id="Layer_2">
	<rect x="54.1" y="153.2" class="st20" width="82.9" height="22.9"/>
	<rect x="54.1" y="43" class="st21" width="82.9" height="75.5"/>
	<rect x="54.1" y="115" class="st22" width="82.9" height="38.2"/>
	<rect x="51.8" y="56" class="st23" width="84.8" height="97.2"/>
	<path class="st24" d="M69.4,69.5L68,70c-0.4,0.1-0.9-0.1-1-0.5L64.8,63c-0.1-0.4,0.1-0.9,0.5-1l1.4-0.5c0.4-0.1,0.9,0.1,1,0.5
		l2.2,6.5C70.1,68.9,69.8,69.4,69.4,69.5z"/>
	<path class="st24" d="M76.6,67.3l-1.1-1c-0.3-0.3-0.4-0.8-0.1-1.2l4.6-5c0.3-0.3,0.8-0.4,1.2-0.1l1.1,1c0.3,0.3,0.4,0.8,0.1,1.2
		l-4.6,5C77.4,67.6,76.9,67.6,76.6,67.3z"/>
	<path class="st24" d="M77.1,77.7l-1.1,1c-0.3,0.3-0.9,0.3-1.2-0.1l-4.5-5.1c-0.3-0.3-0.3-0.9,0.1-1.2l1.1-1
		c0.3-0.3,0.9-0.3,1.2,0.1l4.5,5.1C77.5,76.8,77.4,77.4,77.1,77.7z"/>
	<path class="st24" d="M66.8,84.8l-1.4-0.4c-0.4-0.1-0.7-0.6-0.5-1l2-6.5c0.1-0.4,0.6-0.7,1-0.5l1.4,0.4c0.4,0.1,0.7,0.6,0.5,1
		l-2,6.5C67.7,84.7,67.2,84.9,66.8,84.8z"/>
	<path class="st24" d="M66.7,97l-1.4,0.3c-0.4,0.1-0.9-0.2-1-0.6L63,90c-0.1-0.4,0.2-0.9,0.6-1l1.4-0.3c0.4-0.1,0.9,0.2,1,0.6
		l1.3,6.7C67.4,96.5,67.2,97,66.7,97z"/>
	<path class="st24" d="M84.5,101l-1.4-0.4c-0.4-0.1-0.7-0.6-0.5-1l2-6.5c0.1-0.4,0.6-0.7,1-0.5l1.4,0.4c0.4,0.1,0.7,0.6,0.5,1
		l-2,6.5C85.3,100.8,84.9,101.1,84.5,101z"/>
	<path class="st24" d="M96.7,103.9l-1.3,0.6c-0.4,0.2-0.9,0-1.1-0.4l-2.8-6.2c-0.2-0.4,0-0.9,0.4-1.1l1.3-0.6c0.4-0.2,0.9,0,1.1,0.4
		l2.8,6.2C97.3,103.2,97.1,103.7,96.7,103.9z"/>
	<path class="st24" d="M88.6,104l1.2,0.8c0.4,0.2,0.5,0.8,0.2,1.1l-3.7,5.7c-0.2,0.4-0.8,0.5-1.1,0.2l-1.2-0.8
		c-0.4-0.2-0.5-0.8-0.2-1.1l3.7-5.7C87.8,103.9,88.3,103.8,88.6,104z"/>
	<path class="st24" d="M77.8,110.6l-1.5,0.1c-0.4,0-0.8-0.3-0.9-0.8l-0.4-6.8c0-0.4,0.3-0.8,0.8-0.9l1.5-0.1c0.4,0,0.8,0.3,0.9,0.8
		l0.4,6.8C78.6,110.2,78.3,110.5,77.8,110.6z"/>
	<path class="st24" d="M73.9,98.8l-1.3-0.6c-0.4-0.2-0.6-0.7-0.4-1.1l2.7-6.3c0.2-0.4,0.7-0.6,1.1-0.4l1.3,0.6
		c0.4,0.2,0.6,0.7,0.4,1.1L75,98.4C74.8,98.8,74.3,99,73.9,98.8z"/>
	<path class="st24" d="M80.9,89.3l-1.4,0.5c-0.4,0.1-0.9-0.1-1-0.5l-2.2-6.5c-0.1-0.4,0.1-0.9,0.5-1l1.4-0.5c0.4-0.1,0.9,0.1,1,0.5
		l2.2,6.5C81.6,88.7,81.4,89.1,80.9,89.3z"/>
	<path class="st24" d="M82.5,83.4l-1.4-0.5c-0.4-0.2-0.6-0.6-0.5-1.1l2.4-6.4c0.2-0.4,0.6-0.6,1.1-0.5l1.4,0.5
		c0.4,0.2,0.6,0.6,0.5,1.1L83.5,83C83.4,83.4,82.9,83.6,82.5,83.4z"/>
	<path class="st24" d="M86.9,71.7l-1.4-0.3c-0.4-0.1-0.7-0.5-0.7-1l1.2-6.7c0.1-0.4,0.5-0.7,1-0.7l1.4,0.3c0.4,0.1,0.7,0.5,0.7,1
		L87.9,71C87.8,71.5,87.4,71.8,86.9,71.7z"/>
	<path class="st24" d="M96.6,68.5l-1.4,0.3c-0.4,0.1-0.9-0.2-1-0.6l-1.3-6.7c-0.1-0.4,0.2-0.9,0.6-1l1.4-0.3c0.4-0.1,0.9,0.2,1,0.6
		l1.3,6.7C97.3,68,97,68.4,96.6,68.5z"/>
	<path class="st24" d="M65.9,108.7l-1.3-0.7c-0.4-0.2-0.5-0.7-0.3-1.1l3.4-5.9c0.2-0.4,0.7-0.5,1.1-0.3l1.3,0.7
		c0.4,0.2,0.5,0.7,0.3,1.1l-3.4,5.9C66.8,108.8,66.3,109,65.9,108.7z"/>
	<path class="st24" d="M93.3,92.7l-1.5,0.1c-0.4,0-0.8-0.3-0.9-0.8l-0.4-6.8c0-0.4,0.3-0.8,0.8-0.9l1.5-0.1c0.4,0,0.8,0.3,0.9,0.8
		l0.4,6.8C94,92.3,93.7,92.6,93.3,92.7z"/>
	<path class="st24" d="M91.7,80.7l-1-1c-0.3-0.3-0.3-0.8,0-1.2l4.8-4.8c0.3-0.3,0.8-0.3,1.2,0l1,1c0.3,0.3,0.3,0.8,0,1.2l-4.8,4.8
		C92.5,81,92,81,91.7,80.7z"/>
	<g>
		<path class="st24" d="M105.1,71.8l-1.4,0.5c-0.4,0.1-0.9-0.1-1-0.5l-2.2-6.5c-0.1-0.4,0.1-0.9,0.5-1l1.4-0.5
			c0.4-0.1,0.9,0.1,1,0.5l2.2,6.5C105.7,71.2,105.5,71.7,105.1,71.8z"/>
		<path class="st24" d="M111.2,72.3l-1.1-1c-0.3-0.3-0.4-0.8-0.1-1.2l4.6-5c0.3-0.3,0.8-0.4,1.2-0.1l1.1,1c0.3,0.3,0.4,0.8,0.1,1.2
			l-4.6,5C112.1,72.6,111.5,72.7,111.2,72.3z"/>
		<path class="st24" d="M111.7,79.9l-1.1,1c-0.3,0.3-0.9,0.3-1.2-0.1l-4.5-5.1c-0.3-0.3-0.3-0.9,0.1-1.2l1.1-1
			c0.3-0.3,0.9-0.3,1.2,0.1l4.5,5.1C112.1,79.1,112,79.6,111.7,79.9z"/>
		<path class="st24" d="M100.8,86.2l-1.4-0.4c-0.4-0.1-0.7-0.6-0.5-1l2-6.5c0.1-0.4,0.6-0.7,1-0.5l1.4,0.4c0.4,0.1,0.7,0.6,0.5,1
			l-2,6.5C101.7,86.1,101.3,86.4,100.8,86.2z"/>
		<path class="st24" d="M102.2,97.8l-1.4,0.3c-0.4,0.1-0.9-0.2-1-0.6l-1.3-6.7c-0.1-0.4,0.2-0.9,0.6-1l1.4-0.3
			c0.4-0.1,0.9,0.2,1,0.6l1.3,6.7C103,97.3,102.7,97.7,102.2,97.8z"/>
		<path class="st24" d="M118.4,96.1l-1.4-0.4c-0.4-0.1-0.7-0.6-0.5-1l2-6.5c0.1-0.4,0.6-0.7,1-0.5l1.4,0.4c0.4,0.1,0.7,0.6,0.5,1
			l-2,6.5C119.3,96,118.8,96.2,118.4,96.1z"/>
		<path class="st24" d="M130.8,107.7l-1.3,0.6c-0.4,0.2-0.9,0-1.1-0.4l-2.8-6.2c-0.2-0.4,0-0.9,0.4-1.1l1.3-0.6
			c0.4-0.2,0.9,0,1.1,0.4l2.8,6.2C131.4,107.1,131.2,107.5,130.8,107.7z"/>
		<path class="st24" d="M119.7,109.3l-1.4-0.4c-0.4-0.1-0.7-0.6-0.5-1l2-6.5c0.1-0.4,0.6-0.7,1-0.5l1.4,0.4c0.4,0.1,0.7,0.6,0.5,1
			l-2,6.5C120.6,109.2,120.2,109.4,119.7,109.3z"/>
		<path class="st24" d="M112.9,109.7l-1.5,0.1c-0.4,0-0.8-0.3-0.9-0.8l-0.4-6.8c0-0.4,0.3-0.8,0.8-0.9l1.5-0.1
			c0.4,0,0.8,0.3,0.9,0.8l0.4,6.8C113.6,109.2,113.3,109.6,112.9,109.7z"/>
		<path class="st24" d="M107.4,99.6L106,99c-0.4-0.2-0.6-0.7-0.4-1.1l2.7-6.3c0.2-0.4,0.7-0.6,1.1-0.4l1.3,0.6
			c0.4,0.2,0.6,0.7,0.4,1.1l-2.7,6.3C108.3,99.5,107.8,99.7,107.4,99.6z"/>
		<path class="st24" d="M114.3,90l-1.4,0.5c-0.4,0.1-0.9-0.1-1-0.5l-2.2-6.5c-0.1-0.4,0.1-0.9,0.5-1l1.4-0.5c0.4-0.1,0.9,0.1,1,0.5
			l2.2,6.5C114.9,89.4,114.7,89.9,114.3,90z"/>
		<path class="st24" d="M115.8,82.1l-1.4-0.5c-0.4-0.2-0.6-0.6-0.5-1.1l2.4-6.4c0.2-0.4,0.6-0.6,1.1-0.5l1.4,0.5
			c0.4,0.2,0.6,0.6,0.5,1.1l-2.4,6.4C116.7,82.1,116.2,82.3,115.8,82.1z"/>
		<path class="st24" d="M122.7,75.6l-1.4-0.3c-0.4-0.1-0.7-0.5-0.7-1l1.2-6.7c0.1-0.4,0.5-0.7,1-0.7l1.4,0.3c0.4,0.1,0.7,0.5,0.7,1
			l-1.2,6.7C123.6,75.4,123.2,75.7,122.7,75.6z"/>
		<path class="st24" d="M129.9,70.5l-1.4,0.3c-0.4,0.1-0.9-0.2-1-0.6l-1.3-6.7c-0.1-0.4,0.2-0.9,0.6-1l1.4-0.3
			c0.4-0.1,0.9,0.2,1,0.6l1.3,6.7C130.6,70,130.3,70.4,129.9,70.5z"/>
		<path class="st24" d="M99.2,109.5l-1.3-0.7c-0.4-0.2-0.5-0.7-0.3-1.1l3.4-5.9c0.2-0.4,0.7-0.5,1.1-0.3l1.3,0.7
			c0.4,0.2,0.5,0.7,0.3,1.1l-3.4,5.9C100.1,109.6,99.6,109.7,99.2,109.5z"/>
		<path class="st24" d="M129.4,96.9l-1.5,0.1c-0.4,0-0.8-0.3-0.9-0.8l-0.4-6.8c0-0.4,0.3-0.8,0.8-0.9l1.5-0.1c0.4,0,0.8,0.3,0.9,0.8
			l0.4,6.8C130.2,96.5,129.8,96.9,129.4,96.9z"/>
		<path class="st24" d="M123.2,85.6l-1-1c-0.3-0.3-0.3-0.8,0-1.2l4.8-4.8c0.3-0.3,0.8-0.3,1.2,0l1,1c0.3,0.3,0.3,0.8,0,1.2l-4.8,4.8
			C124,85.9,123.5,85.9,123.2,85.6z"/>
	</g>
</g>
<g id="Layer_1">
	<polyline class="st27" points="54.1,38.6 54.1,176.1 137,176.1 137,38.6 	"/>
	<line class="st27" x1="54.1" y1="191" x2="137" y2="191"/>
</g>
</svg>
