<?xml version="1.0" encoding="utf-8"?>
<!-- Generator: Adobe Illustrator 21.0.0, SVG Export Plug-In . SVG Version: 6.00 Build 0)  -->
<svg version="1.1" xmlns="http://www.w3.org/2000/svg" xmlns:xlink="http://www.w3.org/1999/xlink" x="0px" y="0px"
	 viewBox="0 0 200 200" style="enable-background:new 0 0 200 200;" xml:space="preserve">
<style type="text/css">
	.st0{fill:#EAB16C;}
	.st1{fill:#FFDBB3;}
	.st2{fill:#1E1E1E;}
	.st3{fill:#5CA81A;}
	.st4{opacity:0.53;fill:#AF6617;}
	.st5{fill:#5E2D00;}
	.st6{fill:#FFDE55;}
	.st7{fill:#FCE68B;}
	.st8{fill:#DD9957;}
	.st9{fill:#FFF2BB;}
	.st10{opacity:0.49;fill:#FFE164;}
	.st11{opacity:0.45;fill:#FFD836;}
	.st12{fill:#FFC024;}
	.st13{opacity:0.61;fill:#FCD077;}
	.st14{opacity:0.53;fill:#FCB515;}
	.st15{fill:#FFC98F;}
	.st16{opacity:0.79;fill:#824F2B;}
	.st17{fill:#FFE1BD;}
	.st18{fill:#A0682A;}
	.st19{fill:#7C4D1E;}
	.st20{fill:#1E0F02;}
	.st21{fill:#FFF5EE;}
	.st22{fill:#8E4B14;}
	.st23{opacity:0.28;fill:#5BA02E;}
	.st24{opacity:0.83;fill:#168E2A;}
	.st25{opacity:0.58;fill:#824F2B;}
	.st26{opacity:0.25;fill:#824F2B;}
	.st27{fill:none;stroke:#1E1E1E;stroke-width:10;stroke-linecap:round;stroke-linejoin:round;stroke-miterlimit:10;}
</style>
<g id="Layer_2">
	<rect x="61.8" y="46.8" class="st12" width="82.9" height="129.3"/>
	<rect x="61.8" y="111.5" class="st13" width="81.9" height="61.5"/>
	<path class="st14" d="M83.5,136.6L83.5,136.6c-5.1,0-9.3-4.2-9.3-9.3v0c0-5.1,4.2-9.3,9.3-9.3h0c5.1,0,9.3,4.2,9.3,9.3v0
		C92.8,132.4,88.6,136.6,83.5,136.6z"/>
	<path class="st14" d="M96,162.4L96,162.4c-5.1,0-9.3-4.2-9.3-9.3v0c0-5.1,4.2-9.3,9.3-9.3h0c5.1,0,9.3,4.2,9.3,9.3v0
		C105.3,158.2,101.1,162.4,96,162.4z"/>
	<path class="st14" d="M119.5,145.9L119.5,145.9c-5.1,0-9.3-4.2-9.3-9.3v0c0-5.1,4.2-9.3,9.3-9.3h0c5.1,0,9.3,4.2,9.3,9.3v0
		C128.8,141.7,124.6,145.9,119.5,145.9z"/>
</g>
<g id="Layer_1">
	<polyline class="st27" points="60.8,38.6 60.8,176.1 143.7,176.1 143.7,38.6 	"/>
	<line class="st27" x1="60.8" y1="191" x2="143.7" y2="191"/>
</g>
</svg>
